<?xml version="1.0" encoding="UTF-8"?>
<svg version="1.1" xmlns="http://www.w3.org/2000/svg" width="2000" height="2000">
<path d="M0 0 C660 0 1320 0 2000 0 C2000 660 2000 1320 2000 2000 C1340 2000 680 2000 0 2000 C0 1340 0 680 0 0 Z " fill="#FEFEFE" transform="translate(0,0)"/>
<path d="M0 0 C3.99397944 0.0136222 7.98770586 0.00003296 11.98168945 -0.01269531 C42.69377267 -0.02940431 73.21648109 1.82805903 103.32348633 8.15917969 C108.48092905 9.23702947 113.65896386 10.18205288 118.84350586 11.11962891 C160.55399293 18.67666899 201.94944861 32.01821273 240.69458008 49.26074219 C241.71213379 49.70853027 242.7296875 50.15631836 243.77807617 50.61767578 C273.04619259 63.55428216 301.30151468 78.83817075 327.72387695 96.91845703 C329.87749479 98.38532904 332.04331148 99.83309155 334.21020508 101.28027344 C345.42521521 108.80877223 356.15180846 116.82036922 366.69458008 125.26074219 C367.41339355 125.8338916 368.13220703 126.40704102 368.87280273 126.99755859 C376.18166441 132.83503755 383.4070055 138.72331338 390.28833008 145.06542969 C392.33415999 146.93191737 394.40560008 148.75652144 396.49536133 150.57324219 C400.53371097 154.09845734 404.47509593 157.71589983 408.38208008 161.38574219 C409.06906982 162.03099854 409.75605957 162.67625488 410.46386719 163.34106445 C418.8863038 171.28677773 427.33303783 179.27831026 434.83129883 188.11621094 C436.83516624 190.4225489 438.90711727 192.65298109 440.99291992 194.88500977 C445.95896971 200.20248179 450.7453465 205.59735096 455.30004883 211.27636719 C457.07698693 213.49101761 458.8695381 215.68566599 460.68286133 217.87011719 C468.80731927 227.69174442 476.35822038 237.84009777 483.69458008 248.26074219 C484.38583984 249.23382324 484.38583984 249.23382324 485.09106445 250.2265625 C501.81530028 273.79918979 516.99825041 298.81199267 529.53833008 324.86572266 C530.9430555 327.77542628 532.36648169 330.67577452 533.78833008 333.57714844 C544.43739277 355.39082491 553.50889456 377.40874797 561.69458008 400.26074219 C562.02876953 401.19176758 562.36295898 402.12279297 562.70727539 403.08203125 C567.97370052 417.89971117 571.90039802 433.00915223 575.69458008 448.26074219 C576.0736853 449.76060669 576.0736853 449.76060669 576.46044922 451.29077148 C582.81407903 476.46036623 587.90910373 501.7239138 590.30004883 527.59277344 C590.57385863 530.98827028 590.57385863 530.98827028 591.18634033 533.14324951 C595.73848199 552.10895753 594.01763957 574.2585803 593.95532227 593.70068359 C593.94388521 597.30243616 593.95074922 600.90389439 593.96220016 604.50563717 C594.00893344 621.8371636 593.48603723 639.00694049 591.69458008 656.26074219 C591.58116272 657.37210541 591.58116272 657.37210541 591.4654541 658.50592041 C591.02357484 662.74601374 590.50562902 666.972412 589.94458008 671.19824219 C589.69297119 673.10996216 589.69297119 673.10996216 589.4362793 675.06030273 C585.49315967 704.37458451 580.22637589 733.8044166 571.38085938 762.06225586 C570.50859395 764.85654621 569.65593434 767.65670473 568.80004883 770.45605469 C552.05569193 824.82839906 529.14438284 876.75146568 497.69458008 924.26074219 C449.49783467 909.89294269 403.67233402 865.2576714 368.81958008 830.51074219 C368.32112579 830.01496674 367.82267151 829.51919128 367.30911255 829.00839233 C362.06558172 823.78624824 356.92888808 818.51922907 352.11206055 812.89648438 C350.39747977 810.91789477 348.57759447 809.07882505 346.69458008 807.26074219 C343.4225588 804.03915669 340.40141953 800.67482073 337.40942383 797.19433594 C335.73453709 795.30579622 333.99510421 793.52918571 332.19458008 791.76074219 C329.76068276 789.37021052 327.48102449 786.91027956 325.25708008 784.32324219 C322.83840229 781.51497872 320.33558325 778.86103626 317.69458008 776.26074219 C314.44428025 773.06044697 311.44733763 769.71849643 308.47583008 766.26074219 C306.62032798 764.17737141 304.68234907 762.21793012 302.69458008 760.26074219 C299.44428025 757.06044697 296.44733763 753.71849643 293.47583008 750.26074219 C291.62032798 748.17737141 289.68234907 746.21793012 287.69458008 744.26074219 C284.44428025 741.06044697 281.44733763 737.71849643 278.47583008 734.26074219 C276.62032798 732.17737141 274.68234907 730.21793012 272.69458008 728.26074219 C269.44428025 725.06044697 266.44733763 721.71849643 263.47583008 718.26074219 C260.9920058 715.47188686 258.32746571 712.88387235 255.66723633 710.26464844 C253.12120178 707.67828067 250.77436451 704.94538939 248.40942383 702.19433594 C246.73453709 700.30579622 244.99510421 698.52918571 243.19458008 696.76074219 C240.76068276 694.37021052 238.48102449 691.91027956 236.25708008 689.32324219 C233.83840229 686.51497872 231.33558325 683.86103626 228.69458008 681.26074219 C225.44428025 678.06044697 222.44733763 674.71849643 219.47583008 671.26074219 C217.62032798 669.17737141 215.68234907 667.21793012 213.69458008 665.26074219 C210.44428025 662.06044697 207.44733763 658.71849643 204.47583008 655.26074219 C202.62032798 653.17737141 200.68234907 651.21793012 198.69458008 649.26074219 C195.44428025 646.06044697 192.44733763 642.71849643 189.47583008 639.26074219 C186.9920058 636.47188686 184.32746571 633.88387235 181.66723633 631.26464844 C179.12120178 628.67828067 176.77436451 625.94538939 174.40942383 623.19433594 C172.73453709 621.30579622 170.99510421 619.52918571 169.19458008 617.76074219 C166.76068276 615.37021052 164.48102449 612.91027956 162.25708008 610.32324219 C159.83840229 607.51497872 157.33558325 604.86103626 154.69458008 602.26074219 C151.44428025 599.06044697 148.44733763 595.71849643 145.47583008 592.26074219 C143.62032798 590.17737141 141.68234907 588.21793012 139.69458008 586.26074219 C136.44428025 583.06044697 133.44733763 579.71849643 130.47583008 576.26074219 C128.62032798 574.17737141 126.68234907 572.21793012 124.69458008 570.26074219 C121.44428025 567.06044697 118.44733763 563.71849643 115.47583008 560.26074219 C113.62032798 558.17737141 111.68234907 556.21793012 109.69458008 554.26074219 C106.44428025 551.06044697 103.44733763 547.71849643 100.47583008 544.26074219 C98.00056069 541.48149235 95.34592098 538.90190589 92.69458008 536.29199219 C89.5373252 533.0854052 86.61013402 529.68651807 83.69458008 526.26074219 C85.37205462 522.22891742 88.16278198 519.1915491 91.00708008 515.94824219 C91.80287476 515.0306311 91.80287476 515.0306311 92.61474609 514.09448242 C93.73823533 512.79974465 94.86352154 511.50656428 95.99047852 510.21484375 C97.63847018 508.32508368 99.28087488 506.43064539 100.92114258 504.53417969 C103.62881543 501.40403891 106.34047973 498.27739061 109.0534668 495.15185547 C111.76879225 492.02288925 114.48156388 488.89171063 117.19458008 485.76074219 C118.27790102 484.51073145 119.36123435 483.26073145 120.44458008 482.01074219 C120.98083008 481.39199219 121.51708008 480.77324219 122.06958008 480.13574219 C126.94458008 474.51074219 126.94458008 474.51074219 128.56982422 472.63549805 C129.65239333 471.38635482 130.73491292 470.13716866 131.81738281 468.88793945 C134.53700285 465.74947584 137.25749811 462.611779 139.97973633 459.47558594 C141.07225106 458.21652933 142.16469921 456.95741494 143.25708008 455.69824219 C143.79300781 455.08053955 144.32893555 454.46283691 144.88110352 453.82641602 C149.09390166 448.96564211 153.27336213 444.07693761 157.44995117 439.18505859 C160.37720931 435.76683936 163.35267689 432.40191051 166.38208008 429.07324219 C169.41170876 425.73847105 172.300661 422.3278658 175.13208008 418.82324219 C178.99399683 414.04789817 183.07132231 409.52406534 187.22973633 405.00683594 C189.62165305 402.34199052 191.88712891 399.61242394 194.13208008 396.82324219 C197.78964272 392.28838057 201.64075035 388.00538036 205.60620117 383.74365234 C209.40856814 379.63294943 212.937286 375.33798635 216.44848633 370.97558594 C218.78288597 368.15400724 221.21448606 365.45483507 223.69458008 362.76074219 C226.98789707 359.18281756 230.14109329 355.54534553 233.19458008 351.76074219 C237.03642596 346.99901771 241.09792515 342.49453312 245.24145508 337.99511719 C247.57174276 335.39766277 249.76705176 332.73668505 251.94458008 330.01074219 C270.09267268 307.5906207 288.78062372 291.02151776 317.69458008 285.26074219 C318.50588379 285.08510742 319.3171875 284.90947266 320.15307617 284.72851562 C325.25164839 284.0550795 330.29973131 284.13853549 335.43676758 284.16308594 C336.43329346 284.16409302 337.42981934 284.1651001 338.45654297 284.1661377 C342.16090046 284.17134955 345.86524149 284.18531076 349.56958008 284.19824219 C357.86083008 284.21886719 366.15208008 284.23949219 374.69458008 284.26074219 C374.69458008 257.20074219 374.69458008 230.14074219 374.69458008 202.26074219 C288.89458008 202.26074219 203.09458008 202.26074219 114.69458008 202.26074219 C114.69458008 229.32074219 114.69458008 256.38074219 114.69458008 284.26074219 C122.28458008 284.26074219 129.87458008 284.26074219 137.69458008 284.26074219 C134.83921061 288.54379639 131.94624616 292.61748627 128.75708008 296.63574219 C128.28834473 297.22863037 127.81960938 297.82151855 127.33666992 298.43237305 C125.79367731 300.37868805 124.24518457 302.32048655 122.69458008 304.26074219 C122.13399902 304.96247559 121.57341797 305.66420898 120.99584961 306.38720703 C119.27496775 308.53625089 117.54846985 310.68063699 115.81958008 312.82324219 C115.28469971 313.48952637 114.74981934 314.15581055 114.19873047 314.84228516 C111.20540399 318.53366381 108.12140203 321.96669378 104.69458008 325.26074219 C104.58968262 324.19098145 104.58968262 324.19098145 104.48266602 323.09960938 C102.97283767 307.97705214 101.25402037 293.05183451 97.69458008 278.26074219 C97.44417969 277.20814209 97.44417969 277.20814209 97.1887207 276.13427734 C86.98984793 234.66472282 60.53153424 196.91286832 26.42553711 171.55175781 C24.76073861 170.31008582 23.11614137 169.0450939 21.47192383 167.77636719 C6.22519809 156.229434 -11.02526133 147.70772328 -28.92944336 141.13525391 C-30.5793406 140.52798593 -32.22289756 139.90332207 -33.86108398 139.26513672 C-41.01087456 136.53368315 -48.20383166 134.73786824 -55.68041992 133.13574219 C-56.80963867 132.884375 -57.93885742 132.63300781 -59.10229492 132.37402344 C-83.13514467 127.12199334 -107.25571532 125.96373162 -131.7956543 125.94189453 C-134.24251628 125.93256672 -136.68937516 125.92239396 -139.13623047 125.91145325 C-145.02046532 125.88724224 -150.90467449 125.8716534 -156.78894681 125.86013816 C-163.65133403 125.84622305 -170.51366888 125.82126315 -177.37602121 125.79575486 C-189.60832928 125.7505703 -201.84064694 125.71384023 -214.07299805 125.68261719 C-225.93759841 125.65231429 -237.80217553 125.61791135 -249.66674805 125.578125 C-250.40121759 125.57566345 -251.13568713 125.5732019 -251.89241332 125.57066576 C-255.57796799 125.55828889 -259.26352238 125.5458328 -262.94907665 125.53333735 C-293.4011591 125.43019513 -323.85326804 125.34099766 -354.30541992 125.26074219 C-351.47462895 122.40170724 -348.75538721 119.68897548 -345.47729492 117.35058594 C-344.41478516 116.5875415 -344.41478516 116.5875415 -343.33081055 115.80908203 C-342.57993164 115.27750488 -341.82905273 114.74592773 -341.05541992 114.19824219 C-340.26329102 113.63314941 -339.47116211 113.06805664 -338.6550293 112.48583984 C-337.01061837 111.31391951 -335.36477386 110.14400826 -333.7175293 108.97607422 C-331.46250529 107.37245087 -329.21839926 105.75482924 -326.97729492 104.13183594 C-317.74673891 97.48027918 -308.27942868 91.37224447 -298.49780273 85.56347656 C-296.40504887 84.31994264 -294.31957354 83.06497849 -292.23510742 81.80761719 C-224.29969775 41.06773989 -149.49336435 16.08706607 -71.30053711 4.55706787 C-69.4754561 4.28599689 -67.65205437 4.003681 -65.82885742 3.72021484 C-44.00923095 0.52368927 -22.01937685 -0.07557781 0 0 Z " fill="#000000" transform="translate(994.305419921875,298.7392578125)"/>
<path d="M0 0 C0 9.57 0 19.14 0 29 C4.021875 28.96519531 8.04375 28.93039062 12.1875 28.89453125 C15.41206077 28.87521272 18.636605 28.85895342 21.8611908 28.84474945 C25.25539939 28.82896507 28.64938 28.80790296 32.04345703 28.77368164 C35.94569903 28.73716525 39.84761791 28.7202425 43.75 28.70703125 C44.95551514 28.69154739 46.16103027 28.67606354 47.40307617 28.66011047 C54.84536771 28.65863195 61.28347255 28.90505205 67.2421875 33.8671875 C67.78101563 34.52976562 68.31984375 35.19234375 68.875 35.875 C69.42929687 36.53242187 69.98359375 37.18984375 70.5546875 37.8671875 C74.13831962 43.15546625 74.28663637 47.79002023 74.25447559 53.97942066 C74.25768207 54.88944978 74.26088855 55.7994789 74.26419219 56.73708466 C74.27252887 59.80279856 74.26655505 62.86831896 74.26069641 65.93403625 C74.26371542 68.1476691 74.26760364 70.3613009 74.27228898 72.57493085 C74.28261006 78.67085219 74.28037672 84.76671498 74.27610838 90.86264122 C74.27390106 96.75768737 74.28104438 102.65271729 74.28786864 108.54775881 C74.30312231 122.09732504 74.30481227 135.64687261 74.30234561 149.19644562 C74.30051399 159.65917128 74.30226981 170.12189081 74.30657005 180.58461571 C74.30717245 182.08702152 74.30777365 183.58942733 74.30837366 185.09183314 C74.3092809 187.35573975 74.31018956 189.61964636 74.31110601 191.88355297 C74.31953775 212.93719444 74.32386973 233.99083359 74.31969929 255.04447651 C74.31954291 255.83844064 74.31938654 256.63240477 74.31922542 257.45042842 C74.31841962 261.47467756 74.31757385 265.49892669 74.31671212 269.52317581 C74.31645549 270.7220468 74.31645549 270.7220468 74.31619367 271.9451374 C74.31584702 273.56141065 74.31549849 275.1776839 74.31514808 276.79395716 C74.30979099 301.94264872 74.31772007 327.09130522 74.33618164 352.23999023 C74.35689308 380.48664699 74.36762594 408.73328202 74.36360615 436.97994679 C74.3632108 439.99127686 74.36284926 443.00260692 74.36250877 446.013937 C74.36241804 446.75541692 74.36232731 447.49689684 74.36223383 448.26084585 C74.36106733 459.45949813 74.36772018 470.65812849 74.37832069 481.85677528 C74.39036343 494.59211034 74.39194241 507.32739709 74.37953053 520.06273285 C74.3736265 526.56287254 74.37258444 533.06291774 74.38453293 539.56305122 C74.39533987 545.51120712 74.39235034 551.45918904 74.37827124 557.40733662 C74.37560996 559.56142013 74.37803544 561.71551705 74.38600711 563.86958746 C74.39608104 566.79428796 74.38771835 569.71838 74.37473011 572.64305592 C74.38569413 573.90168815 74.38569413 573.90168815 74.39687964 575.1857473 C74.34007154 581.34431623 73.36764416 587.01700278 69.421875 591.98828125 C68.59429688 592.64376953 68.59429688 592.64376953 67.75 593.3125 C67.20859375 593.76238281 66.6671875 594.21226562 66.109375 594.67578125 C58.67285644 599.34426235 52.50317443 599.40414268 43.84765625 599.29296875 C42.17745422 599.28843689 42.17745422 599.28843689 40.47351074 599.28381348 C36.33641212 599.26818372 32.1994462 599.22629997 28.0625 599.1875 C18.801875 599.125625 9.54125 599.06375 0 599 C0 628.7 0 658.4 0 689 C66.99 689 133.98 689 203 689 C203 695.27 203 701.54 203 708 C291.11 708 379.22 708 470 708 C470 690.51 470 673.02 470 655 C474.17902708 658.48252257 476.89006119 660.84423402 480.0625 664.9375 C484.26098694 670.19448872 488.73775555 675.11034852 493.33984375 680.01513672 C496.13111781 682.99069383 498.89661762 685.97294438 501.5625 689.0625 C505.04596846 693.09917437 508.66871172 697.00228504 512.29907227 700.90649414 C515.30300604 704.1421643 518.25800458 707.41497101 521.19140625 710.71484375 C525.84729515 715.89608253 530.70292376 720.85538744 535.63891602 725.76928711 C537.06839717 727.19337492 538.49240511 728.62278044 539.91601562 730.05273438 C544.56357097 734.69382131 549.25430169 739.21177882 554.24145508 743.48657227 C556.83049118 745.71473203 559.31302441 748.04681715 561.8125 750.375 C566.51028818 754.72004303 571.36593252 758.80609467 576.3515625 762.8203125 C578.97275119 764.97757399 581.49154281 767.21311 584 769.5 C589.17818754 774.20007633 594.5166548 778.66118915 600 783 C600.61230469 783.48484863 601.22460938 783.96969727 601.85546875 784.46923828 C624.10178562 801.98985179 647.84759529 816.08860509 673 829 C665.81741228 848.72534687 658.49221501 868.39015107 651 888 C653.94777423 887.7307062 653.94777423 887.7307062 657 887 C658.81788924 884.04277857 658.81788924 884.04277857 659.875 880.4375 C660.57625 878.313125 661.2775 876.18875 662 874 C670.91 874 679.82 874 689 874 C694 886 694 886 694 888 C695.98 888 697.96 888 700 888 C699.76418716 887.35520187 699.52837433 886.71040375 699.28541565 886.04606628 C696.83551821 879.34689691 694.38621345 872.64751105 691.93725586 865.94799805 C691.02274288 863.44629699 690.10798225 860.94468689 689.19311523 858.44311523 C687.87964713 854.85154526 686.56672267 851.25977697 685.25390625 847.66796875 C684.84346573 846.54601608 684.43302521 845.42406342 684.01014709 844.26811218 C683.62982834 843.22725967 683.24950958 842.18640717 682.85766602 841.11401367 C682.52235367 840.19690109 682.18704132 839.27978851 681.84156799 838.33488464 C681.2036701 836.56507162 680.59490771 834.78472314 680 833 C685.22289947 834.64704593 690.27131702 836.4821462 695.27709961 838.70239258 C703.67384377 842.42351972 712.18867909 845.5215895 720.9375 848.3125 C721.95457031 848.63758545 722.97164062 848.9626709 724.01953125 849.29760742 C738.46835204 853.8163823 752.90592683 856.78534081 767.9375 858.5 C769.03690918 858.62673096 770.13631836 858.75346191 771.26904297 858.8840332 C784.14859443 860.31519518 797.06899082 861.18504502 810 862 C807.35546404 865.49369888 804.67638724 868.27591573 801.25 871 C800.27804687 871.77730469 799.30609375 872.55460937 798.3046875 873.35546875 C797.77456055 873.77747559 797.24443359 874.19948242 796.69824219 874.63427734 C794.89007645 876.08840028 793.1040473 877.56680656 791.3203125 879.05078125 C782.48305301 886.37615613 773.38418045 893.16033879 763.9296875 899.66699219 C762.21519497 900.85134558 760.51292303 902.05334618 758.8125 903.2578125 C741.247256 915.65411751 722.86560409 926.71143526 704 937 C703.10297363 937.49177734 702.20594727 937.98355469 701.28173828 938.49023438 C660.83263557 960.53598873 617.60700534 977.50770427 573 989 C572.01676758 989.25990723 571.03353516 989.51981445 570.02050781 989.78759766 C538.70691617 998.01198457 506.90559733 1002.35600017 474.73925781 1005.61450195 C472.83777427 1005.81053502 470.93588467 1006.00867413 469.0415802 1006.26495361 C461.90416808 1007.19399063 454.79386911 1007.14389809 447.60546875 1007.1328125 C446.20892826 1007.13348857 444.81238788 1007.1344611 443.41584778 1007.13571167 C440.49344763 1007.13717977 437.57107819 1007.13506639 434.64868164 1007.13037109 C430.96539996 1007.12473177 427.28219131 1007.12803128 423.59891224 1007.13378906 C401.03836891 1007.16417655 378.84725986 1006.49848605 356.4375 1003.75 C355.06762436 1003.58377136 355.06762436 1003.58377136 353.67007446 1003.41418457 C289.88361688 995.62366273 228.90652891 976.68919262 171 949 C170.04786621 948.54657227 169.09573242 948.09314453 168.11474609 947.62597656 C143.04282859 935.61426875 118.52433289 921.38691119 95.95117188 905.11303711 C92.47891314 902.61570209 89.04419458 900.46062887 85.2265625 898.5234375 C75.88455155 893.46711099 75.88455155 893.46711099 73 889 C70.98310105 880.83859495 71.94192286 872.2539592 73 864 C76.82084771 863.39413558 80.1992242 863.18800135 84 864 C87.06181134 866.79576183 88.71960287 870.13426894 90.5625 873.8125 C91.06845703 874.74126953 91.57441406 875.67003906 92.09570312 876.62695312 C93.03181111 878.34874537 93.95061516 880.08014267 94.84594727 881.82348633 C96.05375003 884.18927861 96.05375003 884.18927861 98 887 C101.08365871 887.2502157 101.08365871 887.2502157 104 887 C103.57066162 886.31373535 103.14132324 885.6274707 102.69897461 884.92041016 C100.7701448 881.82704836 98.85370244 878.72619819 96.9375 875.625 C95.92333008 874.00464844 95.92333008 874.00464844 94.88867188 872.3515625 C94.25380859 871.3203125 93.61894531 870.2890625 92.96484375 869.2265625 C92.3730835 868.27346191 91.78132324 867.32036133 91.17163086 866.33837891 C90.78499268 865.56671387 90.39835449 864.79504883 90 864 C91 862 91 862 94.25 860.75 C98.24687907 859.05235652 101.25700096 857.08756412 103 853 C103.84788936 847.15402599 103.78344892 841.94159079 101.5625 836.4375 C91.67865011 827.03578913 80.28210175 829.57748268 67 829 C67 846.82 67 864.64 67 883 C60.9862519 878.9908346 55.52509602 874.63554873 50 870 C49.46310547 869.55092285 48.92621094 869.1018457 48.37304688 868.63916016 C34.80599616 857.25791206 22.03786189 845.12267644 9.5 832.625 C8.56800781 831.69768066 7.63601563 830.77036133 6.67578125 829.81494141 C2.1203569 825.24883514 -2.30713835 820.63421189 -6.50683594 815.73828125 C-8.5717803 813.33435649 -10.72476683 811.01510931 -12.875 808.6875 C-17.7957178 803.28508543 -22.42792553 797.69831141 -27 792 C-27.91225289 790.87979484 -28.82503803 789.76002295 -29.73828125 788.640625 C-68.30162878 741.17505309 -98.42913075 687.73901859 -121 631 C-121.37995117 630.04931641 -121.75990234 629.09863281 -122.15136719 628.11914062 C-130.31670705 607.57409193 -137.4682197 586.66906761 -142.48681641 565.12841797 C-143.24120274 561.99961678 -144.12639642 558.90982177 -145 555.8125 C-149.50121746 538.95994181 -152.29555836 521.68696423 -155.1875 504.5 C-155.31396912 503.75448883 -155.44043823 503.00897766 -155.57073975 502.24087524 C-160.62654058 472.31480725 -162.35947653 442.3540364 -162.26074219 412.04223633 C-162.24931542 408.51003915 -162.25616694 404.97814243 -162.26761627 401.44595528 C-162.32984527 378.82720309 -161.38899309 356.39286294 -158 334 C-157.79100778 332.53697038 -157.58340649 331.07374161 -157.37695312 329.61035156 C-154.64454155 310.34618367 -151.61027211 291.35971915 -146.65087891 272.52490234 C-145.87611684 269.51942997 -145.19138369 266.49939762 -144.51782227 263.4699707 C-128.85850985 193.56982278 -96.49900442 125.0569487 -55.25 66.76757812 C-54.02321409 65.03282617 -52.80778655 63.29056475 -51.59375 61.546875 C-41.88128726 47.68181067 -31.39358744 34.39132576 -20.34423828 21.57080078 C-18.92352297 19.91063327 -17.52063965 18.23663753 -16.12109375 16.55859375 C-2.29345317 0 -2.29345317 0 0 0 Z " fill="#000000" transform="translate(574,485)"/>
<path d="M0 0 C34.30196479 -0.06867996 68.60391167 -0.12165322 102.90593056 -0.15319599 C106.97065304 -0.15694737 111.03537538 -0.16083041 115.10009766 -0.16479492 C115.9091908 -0.16558185 116.71828394 -0.16636878 117.55189505 -0.16717956 C130.59215078 -0.18017538 143.63236617 -0.20379649 156.67259809 -0.23145839 C170.088238 -0.25967581 183.50385703 -0.27621046 196.91952538 -0.28226548 C205.17419811 -0.28634837 213.42875675 -0.29916442 221.68339428 -0.3237494 C227.37104654 -0.33980921 233.05864124 -0.34435555 238.74631444 -0.34050413 C242.01054983 -0.3386134 245.27455122 -0.34289364 248.53875923 -0.35761642 C293.65085562 -0.55083454 338.38302909 6.54560429 376 33 C377.01707031 33.69996094 378.03414062 34.39992188 379.08203125 35.12109375 C412.65397628 59.48714694 432.01231542 93.33253155 441.1875 133.1875 C441.35459473 133.89946533 441.52168945 134.61143066 441.69384766 135.3449707 C444.39655499 147.51828741 444.24026096 159.90711678 444.25 172.3125 C444.25100708 173.20228546 444.25201416 174.09207092 444.25305176 175.00881958 C444.24269125 188.54924476 443.70690579 201.69299114 441 215 C440.86078125 215.72477539 440.7215625 216.44955078 440.578125 217.19628906 C439.59962378 222.19525247 438.38856304 227.09976539 437 232 C436.66838867 233.17151611 436.66838867 233.17151611 436.33007812 234.36669922 C430.40644346 254.69407698 421.50833197 274.8363847 409 292 C408.51950195 292.66402832 408.03900391 293.32805664 407.54394531 294.01220703 C389.86679485 318.23706214 368.88125171 338.97215769 341 351 C340.27619141 351.31308105 339.55238281 351.62616211 338.80664062 351.94873047 C320.91605258 359.49849677 302.33473558 362.48714229 283 363 C283.87140625 363.93199219 284.7428125 364.86398437 285.640625 365.82421875 C292.96269993 373.65968768 300.26183332 381.51535131 307.52783203 389.40283203 C309.02650133 391.02875152 310.52667664 392.6532681 312.02734375 394.27734375 C320.96325571 403.9482255 329.88677627 413.62827032 338.6796875 423.4296875 C341.31079783 426.34428447 343.96652475 429.23539224 346.625 432.125 C349.6022264 435.36213091 352.55952966 438.61137856 355.4375 441.9375 C359.01802312 446.06755185 362.73579762 450.0660407 366.45019531 454.07519531 C371.01596642 459.00645654 375.51744662 463.99297968 380 469 C385.27028483 474.87802939 390.57232185 480.72500385 395.91357422 486.53857422 C398.79393829 489.67631113 401.65516247 492.83003818 404.5 496 C409.62319284 501.70661694 414.81119939 507.35315354 420 513 C430.36190257 524.27660846 430.36190257 524.27660846 435.4375 529.9375 C439.43517373 534.39286804 443.49200885 538.79083519 447.55834961 543.18334961 C450.56396073 546.43365351 453.54551924 549.70297075 456.5 553 C461.42696174 558.49511589 466.43813983 563.91067473 471.45166016 569.32666016 C473.97037034 572.04870992 476.48501553 574.77450841 479 577.5 C479.99997971 578.58335206 480.99997973 579.66668538 482 580.75 C488 587.25 488 587.25 489.49926758 588.87426758 C490.50162791 589.96011717 491.50406962 591.04589163 492.5065918 592.1315918 C494.97114388 594.80082363 497.4343761 597.47124591 499.89453125 600.14453125 C505.98768553 606.76200401 512.11807329 613.3432037 518.27685547 619.8996582 C521.45427549 623.2825324 524.62647943 626.66992111 527.78515625 630.0703125 C533.15463127 635.84883627 538.52194008 641.59594401 544.15391541 647.12147522 C545.87941854 648.87729963 547.4762224 650.68405986 549.06860352 652.56030273 C553.63166635 657.80540739 558.54531877 662.68994571 563.46484375 667.59765625 C564.46715081 668.60063903 565.46930956 669.60377003 566.47132874 670.60704041 C568.55991534 672.69709138 570.65027388 674.78534888 572.74194336 676.87231445 C575.4023041 679.5269787 578.05814842 682.18610884 580.71266842 684.84661198 C582.77766606 686.91524949 584.84507204 688.98146699 586.9131794 691.04699516 C587.89256411 692.02572005 588.87122681 693.00516806 589.84910393 693.98539925 C594.85220749 698.99790581 599.87989469 703.91011201 605.28077698 708.49485779 C607.10367565 710.09076577 608.8040698 711.77045383 610.5 713.5 C613.42467115 716.47057406 616.48619561 719.20729119 619.64453125 721.92578125 C622.01617049 724.01423969 624.32866829 726.15503797 626.63793945 728.31176758 C631.98779832 733.30595716 637.42810174 738.08639302 643.140625 742.66796875 C645.787665 744.82682514 648.36649968 747.04303735 650.93896484 749.2890625 C658.98299655 756.29754586 667.37343186 762.72797752 676 769 C676.6899707 769.50563477 677.37994141 770.01126953 678.09082031 770.53222656 C688.36177873 778.0388435 698.86622791 784.84459494 710 791 C711.27955566 791.7115625 711.27955566 791.7115625 712.58496094 792.4375 C735.28465657 804.95697307 758.66068093 814.361713 784 820 C784.85400391 820.19207031 785.70800781 820.38414062 786.58789062 820.58203125 C806.88514937 824.86029496 828.37728032 823.27286133 849 823 C849 826.3 849 829.6 849 833 C834.73214941 836.25791173 820.52792316 839.18687847 806 841 C805.17886719 841.10441406 804.35773437 841.20882812 803.51171875 841.31640625 C728.45910058 850.53748998 653.12114351 826.75054305 593.5703125 780.80078125 C585.59153133 774.56669919 577.86711007 768.05793582 570.19970703 761.44799805 C566.59436964 758.34518983 562.9478689 755.30526678 559.25 752.3125 C554.90450617 748.78138861 550.71029768 745.12107423 546.57836914 741.34277344 C545.03560239 739.94097534 543.48451339 738.54813357 541.91699219 737.17407227 C534.13527545 730.3280765 526.84651925 722.99798421 519.53100586 715.66137695 C517.31020693 713.43520138 515.08409034 711.21444368 512.85742188 708.99414062 C511.42155416 707.55761229 509.98599657 706.12077389 508.55078125 704.68359375 C507.89644608 704.03128281 507.2421109 703.37897186 506.56794739 702.70689392 C502.72080582 698.84043843 499.05529223 694.86352536 495.49391174 690.73202515 C493.57915887 688.51208134 491.60296337 686.35113426 489.625 684.1875 C486.57141133 680.81059018 483.65570795 677.36782868 480.8125 673.8125 C475.90996514 667.74679782 470.57741963 662.11835023 465.23046875 656.4453125 C462.2871576 653.31956818 459.43169781 650.13126839 456.62890625 646.87890625 C453.1484145 642.86423831 449.56089146 638.94326906 446 635 C437.42826705 625.5078125 437.42826705 625.5078125 433.625 621.125 C430.17148439 617.15747276 426.6099606 613.2915236 423.04736328 609.42236328 C419.93414956 606.0355544 416.88755462 602.60102456 413.875 599.125 C411.45449925 596.38176582 408.97799358 593.69115432 406.5 591 C402.89987244 587.09018405 399.35582395 583.14133532 395.875 579.125 C392.98080664 575.84491419 390.00781108 572.63731943 387.04467773 569.41967773 C384.51259884 566.66526572 382.00964732 563.89257501 379.5625 561.0625 C375.93787911 556.87890143 372.16614933 552.8356539 368.40258789 548.77758789 C365.72598962 545.88635872 363.07688821 542.98110596 360.5 540 C356.94316962 535.88795707 353.24416316 531.9123038 349.54956055 527.92456055 C344.98388326 522.9933435 340.48343239 518.00609118 336 513 C334.50043381 511.332943 333.00042947 509.66628005 331.5 508 C325.5 501.33333333 319.5 494.66666667 313.5 488 C312.75492188 487.17242188 312.00984375 486.34484375 311.2421875 485.4921875 C309.76707382 483.85260121 308.29308348 482.21200345 306.8203125 480.5703125 C302.69902232 475.9796939 298.55126212 471.41552893 294.375 466.875 C290.81746901 463.00632178 287.31710425 459.09665875 283.875 455.125 C281.45449925 452.38176582 278.97799358 449.69115432 276.5 447 C272.89987244 443.09018405 269.35582395 439.14133532 265.875 435.125 C263.45449925 432.38176582 260.97799358 429.69115432 258.5 427 C254.89987244 423.09018405 251.35582395 419.14133532 247.875 415.125 C245.45449925 412.38176582 242.97799358 409.69115432 240.5 407 C237.46111982 403.69971077 234.43843955 400.39050717 231.5 397 C228.13579807 393.12070495 224.66638914 389.3407809 221.1875 385.56469727 C218.25897284 382.38362464 215.36951961 379.1721377 212.5 375.9375 C199.84787846 361.91697525 185.99457382 347.5421807 167 343 C167 339.7 167 336.4 167 333 C167.77133774 332.98382629 168.54267548 332.96765259 169.33738708 332.95098877 C176.73231819 332.79282149 184.12658445 332.61763783 191.52068996 332.42494583 C195.31891297 332.32652061 199.11706246 332.2339 202.91577148 332.15625 C226.05755543 331.67710436 248.49697121 329.86462537 271 324 C271.82886719 323.81179688 272.65773438 323.62359375 273.51171875 323.4296875 C304.869228 315.8424188 334.05486445 296.75633214 351.34765625 269.34765625 C373.8565521 232.15696304 376.22043416 184.96099294 369 143 C368.79117188 141.71391846 368.79117188 141.71391846 368.578125 140.40185547 C365.46188094 121.47716498 359.38882332 103.73550418 350 87 C349.62504395 86.32984863 349.25008789 85.65969727 348.86376953 84.96923828 C334.89397332 60.43336547 313.31466972 42.37871022 285.98949432 34.41397858 C270.53568396 30.35680124 254.98307916 30.38795992 239.11555195 30.39249516 C235.44135773 30.38931756 231.76731401 30.36360139 228.09320068 30.34051514 C221.17004687 30.30031597 214.24698635 30.27970054 207.32373405 30.26654124 C199.42732822 30.25054718 191.53107845 30.21208121 183.63476419 30.17194796 C167.42322134 30.09004429 151.2117121 30.0356448 135 30 C135.04403744 84.85415025 135.09164716 139.70829655 135.15898132 194.56242371 C135.15997689 195.37432364 135.16097246 196.18622357 135.16199819 197.02272654 C135.18365689 214.66763567 135.20597959 232.31254391 135.22898628 249.95745133 C135.24026477 258.61055008 135.25139653 267.26364901 135.26245117 275.91674805 C135.26355374 276.77783393 135.2646563 277.63891982 135.26579228 278.52609921 C135.30145876 306.43475121 135.32743711 334.343402 135.34838969 362.2520686 C135.36997293 390.93261795 135.4013336 419.61314039 135.44499113 448.29366503 C135.45115335 452.34488734 135.45720383 456.39610981 135.46318626 460.44733238 C135.46495759 461.64333664 135.46495759 461.64333664 135.46676469 462.86350261 C135.48548384 475.69674704 135.49390057 488.52997853 135.49846124 501.36323494 C135.5032666 514.26600003 135.5189338 527.16871577 135.54566566 540.07145438 C135.56121671 547.73654882 135.56846213 555.40154591 135.56376929 563.06665524 C135.56118186 568.79215224 135.57419261 574.51752953 135.59323552 580.24299153 C135.59850795 582.55810535 135.59873358 584.87323734 135.59339563 587.18835101 C135.58687431 590.33752578 135.59880589 593.48612418 135.61523914 596.63525105 C135.6058241 597.9804663 135.6058241 597.9804663 135.59621885 599.35285762 C135.75918437 616.33258852 143.36494867 631.07375444 154.8125 643.25 C167.21420711 655.13903812 181.42873632 659.0622046 198.125 659.625 C199.08148437 659.66367188 200.03796875 659.70234375 201.0234375 659.7421875 C203.34868621 659.83519745 205.67431513 659.91862244 208 660 C208.33 663.3 208.66 666.6 209 670 C140.03 670 71.06 670 0 670 C0 666.7 0 663.4 0 660 C1.30453125 659.96261719 2.6090625 659.92523437 3.953125 659.88671875 C24.25377406 659.18267248 42.20073756 655.00449104 57 640 C67.23162221 627.70928377 72.16425062 614.66101742 72.13142776 598.76814842 C72.13450672 597.38037851 72.13450672 597.38037851 72.13764787 595.96457285 C72.14331836 592.85335221 72.14186055 589.74217583 72.14044189 586.63095093 C72.1430255 584.38218339 72.14603865 582.13341631 72.1494453 579.88464987 C72.15751907 573.69611175 72.15930508 567.50758521 72.16004276 561.31904244 C72.16170274 555.33295189 72.16802033 549.34686669 72.17412117 543.36077941 C72.1901753 527.32412022 72.19608375 511.28746199 72.20086992 495.25079621 C72.20320642 487.66338211 72.20680912 480.07596877 72.2105653 472.48855526 C72.22340016 446.51246371 72.2341195 420.53637259 72.2375679 394.56027794 C72.23778953 392.92988776 72.23801132 391.29949759 72.23823325 389.66910741 C72.23845389 388.03479682 72.23867438 386.40048622 72.2388947 384.76617563 C72.23933725 381.48750901 72.23978437 378.2088424 72.24023438 374.93017578 C72.24034377 374.1172581 72.24045316 373.30434041 72.24056586 372.46678886 C72.24419638 346.10876388 72.26011655 319.75076641 72.28342474 293.39275196 C72.30802656 265.52084427 72.3217409 237.64895231 72.32293582 209.77703345 C72.32310727 206.71677947 72.3233227 203.65652549 72.32357025 200.59627151 C72.32362602 199.84275943 72.32368179 199.08924735 72.32373925 198.31290156 C72.32488937 186.19242429 72.33590805 174.07197526 72.35045731 161.95150752 C72.36483111 149.76640545 72.36805429 137.58133956 72.36001733 125.39623134 C72.35595674 118.79635764 72.35705344 112.19655874 72.37107468 105.59669113 C72.38379743 99.55276579 72.38263017 93.50900694 72.37048396 87.46508189 C72.36852417 85.28067298 72.37161838 83.09625234 72.38032833 80.91185991 C72.46279207 58.82928499 68.51394298 42.82864784 53.2734375 26.10546875 C49.0496449 21.98401474 44.2178659 19.33843509 39 16.6875 C38.33548828 16.34960449 37.67097656 16.01170898 36.98632812 15.66357422 C28.39809047 11.49401439 20.44002708 10.65855526 11 10.375 C9.40865234 10.31699219 9.40865234 10.31699219 7.78515625 10.2578125 C5.19036585 10.16430654 2.59520776 10.08110024 0 10 C0 6.7 0 3.4 0 0 Z " fill="#010101" transform="translate(615,464)"/>
<path d="M0 0 C61.38 0 122.76 0 186 0 C186 2.64 186 5.28 186 8 C183.07835769 8.81720755 180.34234121 9.1845874 177.31640625 9.359375 C140.40960586 11.81291394 109.0389449 25.19126257 84.328125 53.25 C81.25954835 56.87462746 78.26325245 60.55399696 75.28125 64.25 C72.13805742 68.03905407 68.79841405 71.63269352 65.46484375 75.25390625 C63.07292703 77.91875166 60.80745116 80.64831825 58.5625 83.4375 C54.90493736 87.97236161 51.05382973 92.25536183 47.08837891 96.51708984 C43.28601193 100.62779276 39.75729408 104.92275584 36.24609375 109.28515625 C33.9116941 112.10673495 31.48009402 114.80590712 29 117.5 C25.70668301 121.07792463 22.55348679 124.71539666 19.5 128.5 C15.66280969 133.25595419 11.60614899 137.75504801 7.46875 142.25 C5.05621896 144.93737634 2.7674379 147.68965444 0.5 150.5 C-3.33719031 155.25595419 -7.39385101 159.75504801 -11.53125 164.25 C-13.94378104 166.93737634 -16.2325621 169.68965444 -18.5 172.5 C-22.33835414 177.25739668 -26.39622359 181.75783918 -30.53515625 186.25390625 C-32.92707297 188.91875166 -35.19254884 191.64831825 -37.4375 194.4375 C-41.09506264 198.97236161 -44.94617027 203.25536183 -48.91162109 207.51708984 C-52.71398807 211.62779276 -56.24270592 215.92275584 -59.75390625 220.28515625 C-62.0883059 223.10673495 -64.51990598 225.80590712 -67 228.5 C-70.29331699 232.07792463 -73.44651321 235.71539666 -76.5 239.5 C-80.33719031 244.25595419 -84.39385101 248.75504801 -88.53125 253.25 C-90.94378104 255.93737634 -93.2325621 258.68965444 -95.5 261.5 C-99.37478725 266.29898562 -103.45079378 270.86680074 -107.625 275.40625 C-110.81061325 278.885275 -113.91346518 282.43311043 -117 286 C-115.64397927 289.00677473 -114.10904732 291.16876657 -111.83203125 293.546875 C-111.19386475 294.21855713 -110.55569824 294.89023926 -109.89819336 295.58227539 C-109.20991455 296.29762451 -108.52163574 297.01297363 -107.8125 297.75 C-106.35134324 299.28494756 -104.89041085 300.82010873 -103.4296875 302.35546875 C-102.3173877 303.52021729 -102.3173877 303.52021729 -101.18261719 304.70849609 C-97.9136217 308.1405757 -94.67514338 311.60087412 -91.4375 315.0625 C-90.19672313 316.38682045 -88.95583758 317.7110391 -87.71484375 319.03515625 C-87.10237793 319.68887207 -86.48991211 320.34258789 -85.85888672 321.01611328 C-82.73997846 324.34475112 -79.61992913 327.67231906 -76.5 331 C-75.24999459 332.33332826 -73.99999459 333.66666159 -72.75 335 C-72.13125 335.66 -71.5125 336.32 -70.875 337 C52.87500001 469.00000001 52.87500001 469.00000001 161.62182617 584.99707031 C162.88180037 586.34073706 164.14238755 587.68382925 165.40356445 589.02636719 C168.38106556 592.1973618 171.35017705 595.37487019 174.29296875 598.578125 C182.78930563 607.79085614 191.58560962 616.69331714 200.4375 625.5625 C201.35298111 626.4818634 201.35298111 626.4818634 202.28695679 627.4197998 C208.67818876 633.83241288 215.05695471 640.17806682 222 646 C223.04481739 646.90040784 224.08911223 647.8014225 225.1328125 648.703125 C251.50299131 671.14876022 279.86296577 690.92497016 310 708 C310 708.66 310 709.32 310 710 C305.32677536 710.07559343 300.65392585 710.12926247 295.98022461 710.16479492 C294.39878117 710.17964641 292.81737705 710.19993305 291.23608398 710.22631836 C276.24236798 710.46976934 262.18545196 708.58160427 247.75 704.375 C246.87633789 704.12049072 246.00267578 703.86598145 245.10253906 703.60375977 C222.04009408 696.61607839 198.41598578 685.28461811 179 671 C177.81824935 670.15158967 176.63591753 669.30398847 175.453125 668.45703125 C156.55862987 654.84073571 138.82957016 639.90150872 121.55078125 624.30078125 C119.92672663 622.8358989 118.29946215 621.37456169 116.66796875 619.91796875 C105.75327392 610.16171582 95.08921219 600.18218807 84.79370117 589.77441406 C81.23063649 586.18627539 77.57901569 582.77868357 73.7265625 579.5 C69.41633942 575.7553718 65.52050122 571.64745795 61.8125 567.3125 C58.70384718 563.69860338 55.38886023 560.3471255 52 557 C48.05763777 553.10606974 44.30016723 549.14837171 40.70703125 544.92578125 C38.01021987 541.88338305 35.08465604 539.07674191 32.19140625 536.22265625 C29.57898932 533.5729856 27.16697379 530.78827197 24.74609375 527.96484375 C22.27518611 525.18438168 19.6183306 522.60881782 16.96875 520 C14.44574541 517.43694772 12.12437183 514.72654176 9.78125 512 C7.29742572 509.21114467 4.63288563 506.62313017 1.97265625 504.00390625 C-0.57337829 501.41753849 -2.92021557 498.6846472 -5.28515625 495.93359375 C-7.47149197 493.46836327 -9.80620358 491.18071363 -12.15722656 488.87402344 C-13.93133506 487.06982937 -15.58940378 485.21161331 -17.23828125 483.29296875 C-20.94716094 479.02751213 -24.7973427 474.9123179 -28.6875 470.8125 C-35.02544999 464.1056901 -41.31512574 457.35831433 -47.56005859 450.56494141 C-49.55091881 448.40125644 -51.54668998 446.24212591 -53.54223633 444.08276367 C-59.25477186 437.90052874 -64.94827137 431.70109531 -70.63232422 425.49267578 C-72.02579152 423.97185124 -73.42087751 422.45252676 -74.81640625 420.93359375 C-79.80376638 415.50345083 -84.76298848 410.04981284 -89.6875 404.5625 C-92.27615003 401.69399591 -94.88585146 398.8452335 -97.5 396 C-101.59166107 391.54664513 -105.64822946 387.06340146 -109.6875 382.5625 C-112.27615003 379.69399591 -114.88585146 376.8452335 -117.5 374 C-121.58917448 369.54935153 -125.64369084 365.06921917 -129.6796875 360.5703125 C-132.31079783 357.65571553 -134.96652475 354.76460776 -137.625 351.875 C-140.6022264 348.63786909 -143.55952966 345.38862144 -146.4375 342.0625 C-150.05566081 337.88635777 -153.82000584 333.8496842 -157.57763672 329.79956055 C-160.98603406 326.11890116 -164.33060424 322.39334162 -167.59765625 318.5859375 C-168.99852363 316.95314826 -168.99852363 316.95314826 -170.68359375 315.4140625 C-172 314 -172 314 -172 312 C-170.52853516 311.30777344 -170.52853516 311.30777344 -169.02734375 310.6015625 C-155.21048226 303.97443933 -142.66909381 295.96817505 -131 286 C-130.23945312 285.3503125 -129.47890625 284.700625 -128.6953125 284.03125 C-126.0819483 281.73491687 -123.53434895 279.38341127 -121 277 C-120.44151367 276.4755127 -119.88302734 275.95102539 -119.30761719 275.41064453 C-109.41158552 266.03895881 -100.89754311 256.09985501 -93 245 C-92.4937207 244.29536621 -91.98744141 243.59073242 -91.46582031 242.86474609 C-78.52523258 224.70054925 -68.61939383 204.93154367 -61 184 C-60.75169434 183.32533691 -60.50338867 182.65067383 -60.24755859 181.95556641 C-58.20159677 176.33377942 -56.24647342 170.77186354 -55.265625 164.859375 C-53.2664732 153.25396096 -48.51643971 146.55316587 -40.6796875 137.89355469 C-38.12607995 135.01480758 -35.78510201 131.98460739 -33.4375 128.9375 C-32.54148662 127.78948796 -31.64434705 126.64235403 -30.74609375 125.49609375 C-30.29862793 124.92487793 -29.85116211 124.35366211 -29.39013672 123.76513672 C-26.44429468 120.02463128 -23.45756546 116.31669613 -20.47802734 112.60302734 C-17.14512078 108.44415361 -13.84508715 104.26115799 -10.5625 100.0625 C-6.05804207 94.30462769 -1.45970952 88.6276663 3.16162109 82.96337891 C7.12645463 78.0957905 11.03020798 73.18466071 14.89086914 68.23413086 C17.30261207 65.14528372 19.73818459 62.07938093 22.2109375 59.0390625 C22.74904053 58.37527588 23.28714355 57.71148926 23.84155273 57.02758789 C24.87074135 55.76034923 25.90382758 54.4962613 26.94165039 53.23608398 C33.94670921 44.594318 37.09414698 37.26971389 36 26 C34.26197665 19.87503818 30.43955149 15.24749343 25 12 C17.02900271 8.68737775 8.52785532 8.36103329 0 8 C0 5.36 0 2.72 0 0 Z " fill="#010101" transform="translate(1146,538)"/>
<path d="M0 0 C10.31905865 -0.16306261 20.63780477 -0.28700751 30.95789528 -0.3626852 C35.75136848 -0.39902958 40.54395247 -0.44822945 45.33691406 -0.52807617 C49.973022 -0.60481579 54.6082814 -0.64613115 59.24497604 -0.6641407 C61.00308953 -0.67695432 62.76116295 -0.70197306 64.51890945 -0.7401104 C79.183813 -1.0452835 89.02232423 1.64612222 100.4375 11.4375 C101.97956565 12.93680037 103.50227775 14.45640157 105 16 C105.93392578 16.92039062 105.93392578 16.92039062 106.88671875 17.859375 C112.4734874 23.73489799 116.37392712 30.80137452 120 38 C120.49335846 38.85500092 120.98671692 39.71000183 121.49502563 40.59091187 C127.50351799 52.2890983 126.79617033 64.04928018 126.61328125 76.9375 C126.59738134 79.35016859 126.58318562 81.76284894 126.57060242 84.17553711 C126.53715544 89.21217501 126.48140121 94.24794281 126.40991211 99.28417969 C126.32079661 105.70598929 126.29029462 112.12651429 126.27694416 118.5488739 C126.25957554 123.52521694 126.2094846 128.50083586 126.14995384 133.47683716 C126.12575184 135.84318809 126.11178483 138.20966868 126.10869789 140.57614136 C126.05266126 161.31401509 122.04242979 173.79622057 107.10546875 188.91796875 C95.66850832 199.43997235 83.05370016 206.29460717 68 210 C67.99761165 209.22254047 67.99522329 208.44508095 67.99276257 207.64406204 C67.93351175 188.68781162 67.85789747 169.73169027 67.76428509 150.77557755 C67.71940465 141.60837202 67.67997227 132.44120467 67.65356445 123.27392578 C67.63052142 115.27957916 67.59705344 107.28535414 67.55129844 99.29110408 C67.52745092 95.06196361 67.50866684 90.83294294 67.50238609 86.60373688 C67.49629664 82.61458893 67.47615928 78.62574716 67.44572449 74.63671303 C67.43700564 73.18079831 67.43320876 71.72484347 67.43499184 70.26890373 C67.44965944 52.74981968 63.5770757 39.15053711 51.34375 26.28515625 C39.51528092 14.7523989 25.82813828 9.94458622 9.5 9.375 C8.5821875 9.33632813 7.664375 9.29765625 6.71875 9.2578125 C4.47946146 9.16450881 2.23975964 9.08121266 0 9 C0 6.03 0 3.06 0 0 Z " fill="#010101" transform="translate(814,538)"/>
<path d="M0 0 C6.55964007 5.4132952 6.55964007 5.4132952 9.1875 8.5625 C12.21551194 12.11420359 15.33510574 15.57042692 18.5 19 C22.10059854 22.90937696 25.64418602 26.85867618 29.125 30.875 C31.54550175 33.61823531 34.02205946 36.30879579 36.5 39 C43.81396538 46.94599074 43.81396538 46.94599074 47.1907196 50.98596191 C48.95643371 53.04030151 48.95643371 53.04030151 51.04450989 54.7467041 C55.26971249 58.61949854 57.4186476 61.79443905 57.85718822 67.62456512 C57.97077062 71.38991138 57.90894511 75.14097187 57.82421875 78.90625 C57.8190275 80.55659207 57.81811631 82.20695253 57.82124329 83.8572998 C57.8213555 88.1914926 57.77830354 92.5240062 57.72143555 96.85778809 C57.63275511 103.76242166 57.58755345 110.66651801 57.58493996 117.57170105 C57.57455334 119.9544924 57.53197551 122.33507217 57.48625183 124.71740723 C57.31665977 142.27807556 62.01724589 157.52487538 74.0625 170.6875 C85.6539975 181.70535684 99.36813633 186.33667924 115.125 186.6875 C116.176875 186.72166016 117.22875 186.75582031 118.3125 186.79101562 C120.87489313 186.87254632 123.43698497 186.94199728 126 187 C126 189.97 126 192.94 126 196 C79.14 196 32.28 196 -16 196 C-16.66 187.75 -17.32 179.5 -18 171 C-15.36 168.03 -12.72 165.06 -10 162 C-7.73820356 158.51767244 -7.73820356 158.51767244 -6.125 155.0625 C-5.57070313 153.96035156 -5.01640625 152.85820313 -4.4453125 151.72265625 C-0.94327298 142.70253823 -0.69766376 133.78517461 -0.68115234 124.19677734 C-0.67183439 122.83570778 -0.661663 121.47464383 -0.65071106 120.11358643 C-0.62360717 116.44901804 -0.60832047 112.78448766 -0.59528303 109.11984587 C-0.57956583 105.27879742 -0.55280339 101.43782563 -0.5272522 97.59683228 C-0.48061553 90.33692105 -0.44379869 83.07699515 -0.41057932 75.81701148 C-0.37225062 67.54603083 -0.32286891 59.27512746 -0.27259517 51.00421214 C-0.1695003 34.00286414 -0.0801675 17.00147127 0 0 Z " fill="#010101" transform="translate(882,960)"/>
<path d="M0 0 C0.66 0 1.32 0 2 0 C3.48046875 1.50390625 3.48046875 1.50390625 5.1875 3.5625 C7.53279758 6.3253868 9.90829405 8.96679757 12.5 11.5 C15.48893201 14.44264324 18.24652298 17.52355707 20.984375 20.69921875 C23.44480269 23.5077302 25.96974992 26.25461879 28.5 29 C32.09534575 32.90422633 35.63591125 36.84634407 39.109375 40.859375 C42.07762823 44.22012452 45.12778018 47.50605837 48.18164062 50.7890625 C49.46798107 52.18029766 50.73468415 53.58961609 52 55 C52.53815495 55.5764967 53.07630991 56.15299339 53.63077259 56.74695969 C55.52020101 59.85598188 55.36898111 62.15633474 55.36076355 65.78302002 C55.36332682 66.46430741 55.3658901 67.1455948 55.36853105 67.84752727 C55.37347076 70.12938689 55.35697366 72.4105842 55.34057617 74.69238281 C55.33972994 76.32841984 55.34020497 77.96445802 55.34190369 79.60049438 C55.34276521 84.04236427 55.3251141 88.48399162 55.30418181 92.92580509 C55.28544114 97.56761003 55.28366663 102.20942039 55.28010559 106.85125732 C55.27077745 115.64142088 55.24615326 124.43147264 55.21605712 133.22158694 C55.18253704 143.22872869 55.16603312 153.23587574 55.15097082 163.24305964 C55.11960439 183.82876885 55.06682893 204.41437738 55 225 C49.55569418 225.07437576 44.11168671 225.12870866 38.66699219 225.16479492 C36.81635381 225.17984471 34.96575089 225.20028933 33.11523438 225.22631836 C30.44912955 225.2628698 27.78349792 225.27976454 25.1171875 225.29296875 C24.29507782 225.30845261 23.47296814 225.32393646 22.62594604 225.33988953 C16.23537395 225.34174517 12.15050193 223.95045524 7.3125 219.5625 C1.46379559 213.08150322 -0.30497479 208.29680947 -0.24050903 199.50224304 C-0.24221788 198.64859203 -0.24392673 197.79494101 -0.24568737 196.91542178 C-0.24898032 194.05640335 -0.23798171 191.19761985 -0.22705078 188.33862305 C-0.22648663 186.28865057 -0.22680331 184.23867769 -0.22793579 182.18870544 C-0.22851013 176.62302798 -0.21674255 171.05743654 -0.20278788 165.49177909 C-0.19029416 159.67549814 -0.18911109 153.85921527 -0.18673706 148.04292297 C-0.1805183 137.02870462 -0.1641021 126.01452591 -0.14403808 115.00032502 C-0.12169142 102.46115451 -0.11068875 89.92198211 -0.10064721 77.38279665 C-0.07973624 51.5885091 -0.04455254 25.79425677 0 0 Z " fill="#020202" transform="translate(790,859)"/>
<path d="M0 0 C40 0 40 0 48 4 C53.18903103 9.41464108 55.2523666 13.00904202 55.24050903 20.47930908 C55.24221788 21.12792805 55.24392673 21.77654703 55.24568737 22.44482112 C55.24897894 24.61599611 55.23798429 26.78686134 55.22705078 28.95800781 C55.22648659 30.5152282 55.22680337 32.07244911 55.22793579 33.62966919 C55.22851001 37.8566168 55.21674444 42.08345109 55.20278788 46.31037235 C55.19029213 50.7279662 55.18911093 55.14556259 55.18673706 59.56317139 C55.1805189 67.92831473 55.16410352 76.29340585 55.14403808 84.65852618 C55.12168956 94.18200962 55.11068828 103.70549553 55.10064721 113.22899866 C55.07973759 132.8193616 55.04455506 152.40967751 55 172 C50.89617861 172.17588474 46.79191842 172.3387005 42.6875 172.5 C41.02364258 172.57154297 41.02364258 172.57154297 39.32617188 172.64453125 C26.19554043 173.14817191 13.1778553 173 0 173 C0 115.91 0 58.82 0 0 Z " fill="#020202" transform="translate(790,584)"/>
<path d="M0 0 C9 3 9 3 13.0859375 4.39453125 C42.68840999 14.30013388 72.90820956 18.08830948 104 19 C104 21.97 104 24.94 104 28 C98.84833633 29.88250026 93.68348182 30.97619408 88.3125 32 C87.49716797 32.165 86.68183594 32.33 85.84179688 32.5 C70.42331188 35.46108939 55.00622707 36.31496332 39.33642578 36.20581055 C36.60570006 36.18736967 33.87531335 36.18530327 31.14453125 36.18554688 C6.40995984 36.13665328 6.40995984 36.13665328 0 34 C0 22.78 0 11.56 0 0 Z " fill="#050505" transform="translate(1504,1269)"/>
<path d="M0 0 C2.64 0 5.28 0 8 0 C10.51047683 6.81284759 13.01878771 13.6264898 15.52563477 20.44067383 C16.37768175 22.75595914 17.23021403 25.07106593 18.08325195 27.38598633 C19.31330704 30.72429696 20.54158267 34.06325779 21.76953125 37.40234375 C22.14777542 38.42770737 22.52601959 39.45307098 22.91572571 40.50950623 C25.0463851 46.30926219 27.07800781 52.12768913 29 58 C26.69 58 24.38 58 22 58 C21.32739649 56.23141309 20.66211605 54.46003984 20 52.6875 C19.62875 51.70136719 19.2575 50.71523437 18.875 49.69921875 C18 47 18 47 18 44 C8.76 44 -0.48 44 -10 44 C-10.495 46.475 -10.495 46.475 -11 49 C-11.49474397 50.61240394 -12.01488607 52.21727681 -12.5625 53.8125 C-12.83191406 54.60269531 -13.10132813 55.39289063 -13.37890625 56.20703125 C-13.58386719 56.79871094 -13.78882813 57.39039063 -14 58 C-16.31 58 -18.62 58 -21 58 C-16.72711697 44.81873 -12.03105957 31.83257448 -7.125 18.875 C-6.42937444 17.03006592 -5.73406044 15.18501434 -5.0390625 13.33984375 C-3.36294542 8.89187323 -1.68268376 4.44549024 0 0 Z " fill="#F3F3F3" transform="translate(1033,1315)"/>
<path d="M0 0 C2.31 0 4.62 0 7 0 C9.99616128 6.51212612 12.62501879 13.11355769 15.109375 19.8359375 C15.48104797 20.83710602 15.85272095 21.83827454 16.23565674 22.86978149 C17.01360111 24.9684531 17.79000898 27.06769485 18.56494141 29.16748047 C19.75500673 32.3885514 20.95344354 35.60642737 22.15234375 38.82421875 C22.90936311 40.86960337 23.6658912 42.9151699 24.421875 44.9609375 C24.78118103 45.923414 25.14048706 46.8858905 25.51068115 47.87753296 C25.83812317 48.76921173 26.16556519 49.6608905 26.50292969 50.57958984 C26.93783722 51.75465591 26.93783722 51.75465591 27.38153076 52.95346069 C28 55 28 55 28 58 C26.02 58 24.04 58 22 58 C20.35 53.71 18.7 49.42 17 45 C8.09 44.67 -0.82 44.34 -10 44 C-10.99 47.3 -11.98 50.6 -13 54 C-13.66 55.32 -14.32 56.64 -15 58 C-16.98 58 -18.96 58 -21 58 C-18.96298538 50.89289774 -16.60359833 43.9580715 -14.0234375 37.03125 C-13.65272125 36.02912476 -13.282005 35.02699951 -12.90005493 33.99450684 C-12.12329007 31.89651901 -11.34506336 29.79907188 -10.56542969 27.70214844 C-9.3684337 24.48233724 -8.17603583 21.2608516 -6.984375 18.0390625 C-6.22682722 15.99469355 -5.46902396 13.95041925 -4.7109375 11.90625 C-4.3536557 10.94174927 -3.9963739 9.97724854 -3.62826538 8.98352051 C-3.2976712 8.0949939 -2.96707703 7.20646729 -2.62646484 6.29101562 C-2.3357309 5.50843384 -2.04499695 4.72585205 -1.74545288 3.91955566 C-1 2 -1 2 0 0 Z " fill="#F4F4F4" transform="translate(724,1315)"/>
<path d="M0 0 C31.28762285 0 31.28762285 0 41.23828125 8.21484375 C47.36279832 14.42083998 48.5064562 21.06458684 48.625 29.5 C48.51424094 37.96527392 47.21319804 44.4340691 41.3203125 50.8203125 C29.22236894 61.95042057 16.7608437 59 0 59 C0 39.53 0 20.06 0 0 Z M6 5 C6 21.17 6 37.34 6 54 C22.10402691 54.82175097 22.10402691 54.82175097 35.9296875 48.38671875 C42.24821368 41.56936156 42.54174648 33.73069422 42.3046875 24.859375 C41.83301436 18.88484859 40.49654356 15.40448013 36.19921875 11.265625 C26.91138703 3.69108263 18.29570507 5 6 5 Z " fill="#F4F4F4" transform="translate(1088,1314)"/>
<path d="M0 0 C0.78391113 0.78463623 1.56782227 1.56927246 2.37548828 2.37768555 C3.9088168 3.90973035 5.44591787 5.43804873 6.9921875 6.95703125 C10.84192775 10.75086241 14.49543328 14.63771191 18.01953125 18.734375 C20.46606602 21.53317218 22.98111933 24.26656536 25.5 27 C31.99725848 34.07213928 31.99725848 34.07213928 35 37.4375 C35.7734375 38.30181641 35.7734375 38.30181641 36.5625 39.18359375 C38.26776418 41.33834332 39.60333489 43.63635709 41 46 C36.68802347 46.17577828 32.37698002 46.28135237 28.0625 46.375 C26.85013672 46.42527344 25.63777344 46.47554687 24.38867188 46.52734375 C17.1990751 46.64424776 12.53357654 46.03045055 6.71850586 41.66552734 C4.01259225 39.04303229 2.57724619 36.41736675 1 33 C0.67 32.34 0.34 31.68 0 31 C-0.08586809 28.67583704 -0.10711043 26.34916693 -0.09765625 24.0234375 C-0.09553383 22.99556625 -0.09553383 22.99556625 -0.09336853 21.94692993 C-0.08776675 19.75624239 -0.07521406 17.5656567 -0.0625 15.375 C-0.05748522 13.89062648 -0.05292228 12.40625135 -0.04882812 10.921875 C-0.03779677 7.28121685 -0.02053099 3.64061836 0 0 Z " fill="#060606" transform="translate(976,1064)"/>
<path d="M0 0 C1.98 0 3.96 0 6 0 C6 8.91 6 17.82 6 27 C16.56 27 27.12 27 38 27 C38 18.09 38 9.18 38 0 C39.98 0 41.96 0 44 0 C44 19.47 44 38.94 44 59 C42.02 59 40.04 59 38 59 C38 50.09 38 41.18 38 32 C27.44 32 16.88 32 6 32 C6 40.91 6 49.82 6 59 C4.02 59 2.04 59 0 59 C0 39.53 0 20.06 0 0 Z " fill="#F5F5F5" transform="translate(942,1314)"/>
<path d="M0 0 C1.98 0 3.96 0 6 0 C6.33 8.58 6.66 17.16 7 26 C13.04684479 19.95315521 18.86286222 13.96688799 24.15625 7.2734375 C29.89412716 0.29759369 29.89412716 0.29759369 33.3515625 -0.6328125 C35.5625 -0.625 35.5625 -0.625 39 0 C34.87803677 4.90179411 30.6023487 9.646492 26.26513672 14.35742188 C21.80449125 19.20363048 17.39541678 24.09449781 13 29 C15.48749845 33.78573071 18.91996708 37.11050305 22.75 40.8125 C34.71034996 52.56552494 34.71034996 52.56552494 39 59 C32.20457549 59.83452582 32.20457549 59.83452582 29.15625 57.72265625 C27.32772668 55.8899772 25.65471041 53.99094152 24 52 C22.85583825 50.68604256 21.70999277 49.37354943 20.5625 48.0625 C19.99273438 47.39992188 19.42296875 46.73734375 18.8359375 46.0546875 C16.24946038 43.16003438 13.48671205 40.46158947 10.69921875 37.76171875 C9 36 9 36 7 33 C6.67 41.58 6.34 50.16 6 59 C4.02 59 2.04 59 0 59 C0 39.53 0 20.06 0 0 Z " fill="#F4F4F4" transform="translate(1164,1314)"/>
<path d="M0 0 C1.98 0 3.96 0 6 0 C6 8.91 6 17.82 6 27 C6.66 27 7.32 27 8 27 C8.25394531 26.41734375 8.50789062 25.8346875 8.76953125 25.234375 C10.13320333 22.75811967 11.64225203 21.19479374 13.6875 19.25 C16.44586572 16.56146633 19.09348356 13.84113245 21.625 10.9375 C22.19605469 10.28652344 22.76710938 9.63554688 23.35546875 8.96484375 C24.44642789 7.66139376 25.49242169 6.31888128 26.48828125 4.94140625 C30.03125752 0.19515502 30.03125752 0.19515502 33.15234375 -0.43359375 C35.375 -0.4375 35.375 -0.4375 39 0 C34.84330603 6.05689692 30.0598575 11.06610462 24.84033203 16.19091797 C20.67566523 20.28827702 16.76016366 24.52665013 13 29 C17.05449827 34.7493107 21.4933628 39.69673842 26.5625 44.5625 C31.28827346 49.09980791 35.3448451 53.54883808 39 59 C31.87044271 59.6961263 31.87044271 59.6961263 28.015625 56.61328125 C27.07128398 55.53224168 26.15024833 54.4305248 25.25 53.3125 C24.22985079 52.12701512 23.20899484 50.9421381 22.1875 49.7578125 C21.66929687 49.14196289 21.15109375 48.52611328 20.6171875 47.89160156 C17.92098167 44.73788738 15.07891271 41.72171184 12.25 38.6875 C10.5175 36.810625 8.785 34.93375 7 33 C6.67 41.58 6.34 50.16 6 59 C4.02 59 2.04 59 0 59 C0 39.53 0 20.06 0 0 Z " fill="#F0F0F0" transform="translate(877,1314)"/>
<path d="M0 0 C4.5478125 -0.12375 4.5478125 -0.12375 9.1875 -0.25 C10.60712036 -0.30462402 10.60712036 -0.30462402 12.05541992 -0.36035156 C16.21574001 -0.41511005 18.4337676 -0.35090458 22.05078125 1.890625 C25.34077698 5.45094103 25.27887007 8.06424342 25.21875 12.74609375 C24.83921386 16.65667148 23.08836762 18.84777408 20.46875 21.62109375 C16.67010487 23.74280535 13.0156031 23.31647248 8.75 23.1875 C5.8625 23.125625 2.975 23.06375 0 23 C0 15.41 0 7.82 0 0 Z " fill="#010101" transform="translate(647,1320)"/>
<path d="M0 0 C1.98 0 3.96 0 6 0 C6.10169146 6.85004958 6.17158775 13.69990339 6.21972656 20.55053711 C6.23980146 22.87938715 6.26706736 25.20818705 6.30175781 27.53686523 C6.35045591 30.89058838 6.37301065 34.24364317 6.390625 37.59765625 C6.41127014 38.63334244 6.43191528 39.66902863 6.45318604 40.73609924 C6.45513519 47.06173518 5.74306998 50.84340506 2 56 C-1.48294363 58.8653495 -5.1931373 59.90262002 -9.625 60.4375 C-14.94511471 59.7478555 -18.35392968 57.99066694 -21.8125 53.9375 C-24.84407846 49.86652321 -25.10937931 48.03144843 -25 43 C-23.02 43 -21.04 43 -19 43 C-18.80664062 43.55429688 -18.61328125 44.10859375 -18.4140625 44.6796875 C-18.15367187 45.40414063 -17.89328125 46.12859375 -17.625 46.875 C-17.36976563 47.59429688 -17.11453125 48.31359375 -16.8515625 49.0546875 C-16.06122217 51.18157994 -16.06122217 51.18157994 -14 53 C-11.89582032 53.35639561 -11.89582032 53.35639561 -9.5625 53.3125 C-8.78003906 53.32925781 -7.99757813 53.34601563 -7.19140625 53.36328125 C-4.48074592 52.91392045 -3.65279365 52.15823513 -2 50 C-1.0534586 47.16037579 -0.85005776 45.29593471 -0.79467773 42.3449707 C-0.77473251 41.40422195 -0.75478729 40.46347321 -0.73423767 39.49421692 C-0.71752518 38.48163315 -0.70081268 37.46904938 -0.68359375 36.42578125 C-0.66281265 35.38681198 -0.64203156 34.34784271 -0.62062073 33.27738953 C-0.55519344 29.95582747 -0.49627179 26.63418584 -0.4375 23.3125 C-0.39430831 21.0618407 -0.35069381 18.81118948 -0.30664062 16.56054688 C-0.19951902 11.0404489 -0.09773984 5.52027163 0 0 Z " fill="#F3F3F3" transform="translate(800,1314)"/>
<path d="M0 0 C3.08715014 1.54357507 3.25148064 3.95315147 4.3828125 7.15234375 C4.60194305 7.76767471 4.82107361 8.38300568 5.04684448 9.01698303 C5.50911069 10.31959725 5.96785003 11.62346761 6.42333984 12.9284668 C7.12187277 14.92854592 7.83143782 16.92443462 8.54296875 18.91992188 C12 28.69534136 12 28.69534136 12 31 C4.41 31 -3.18 31 -11 31 C-3.30068337 8.93849658 -3.30068337 8.93849658 0 0 Z " fill="#080808" transform="translate(1249,1323)"/>
<path d="M0 0 C3.08715014 1.54357507 3.25148064 3.95315147 4.3828125 7.15234375 C4.60194305 7.76767471 4.82107361 8.38300568 5.04684448 9.01698303 C5.50911069 10.31959725 5.96785003 11.62346761 6.42333984 12.9284668 C7.12187277 14.92854592 7.83143782 16.92443462 8.54296875 18.91992188 C12 28.69534136 12 28.69534136 12 31 C4.41 31 -3.18 31 -11 31 C-3.30068337 8.93849658 -3.30068337 8.93849658 0 0 Z " fill="#080808" transform="translate(727,1323)"/>
<path d="M0 0 C0.66 0 1.32 0 2 0 C3.4304204 3.78795106 4.8543979 7.57825448 6.27246094 11.37084961 C6.75572265 12.66057458 7.24073669 13.94964438 7.72753906 15.23803711 C8.42713915 17.09054958 9.11991233 18.94563569 9.8125 20.80078125 C10.23144531 21.91622314 10.65039062 23.03166504 11.08203125 24.1809082 C12 27 12 27 12 30 C4.74 30 -2.52 30 -10 30 C-7.75 19.875 -7.75 19.875 -6.0546875 15.52734375 C-5.70019531 14.60888672 -5.34570312 13.69042969 -4.98046875 12.74414062 C-4.43326172 11.35485352 -4.43326172 11.35485352 -3.875 9.9375 C-3.50246094 8.97650391 -3.12992188 8.01550781 -2.74609375 7.02539062 C-1.83644515 4.68129617 -0.92101046 2.33964819 0 0 Z " fill="#080808" transform="translate(1036,1324)"/>
</svg>
