<svg width="32" height="32" viewBox="0 0 200 200" fill="none" xmlns="http://www.w3.org/2000/svg">
  <defs>
    <radialGradient id="bg" cx="40%" cy="35%" r="70%">
      <stop offset="0%" stop-color="#1E1050"/>
      <stop offset="100%" stop-color="#0A0F1E"/>
    </radialGradient>
    <linearGradient id="ring" x1="0" y1="0" x2="200" y2="200" gradientUnits="userSpaceOnUse">
      <stop offset="0%" stop-color="#00D4FF"/>
      <stop offset="50%" stop-color="#A855F7"/>
      <stop offset="100%" stop-color="#10B981"/>
    </linearGradient>
    <linearGradient id="mark" x1="32" y1="40" x2="168" y2="160" gradientUnits="userSpaceOnUse">
      <stop offset="0%" stop-color="#FFFFFF"/>
      <stop offset="100%" stop-color="#E8F4FF"/>
    </linearGradient>
  </defs>
  <circle cx="100" cy="100" r="100" fill="url(#bg)"/>
  <circle cx="100" cy="100" r="94" fill="none" stroke="url(#ring)" stroke-width="4" opacity="0.25"/>
  <circle cx="100" cy="100" r="93" fill="none" stroke="url(#ring)" stroke-width="1.5" opacity="0.9"/>
  <polygon points="32,40 55,40 58,160 35,160" fill="url(#mark)"/>
  <path fill-rule="evenodd" fill="url(#mark)"
    d="M55,40 L115,40 L138,58 L138,88 L115,105 L55,105 Z
       M72,57 L110,57 L124,66 L124,80 L110,88 L72,88 Z"/>
  <polygon points="85,105 103,105 168,40 150,40" fill="url(#mark)"/>
  <polygon points="100,105 115,105 147,160 132,160" fill="url(#mark)"/>
</svg>
